<svg width="16" height="16" viewBox="0 0 16 16" fill="none" xmlns="http://www.w3.org/2000/svg">
<g clip-path="url(#clip0_49_4)">
<path d="M10.5 0C7.4 0 5 2.5 5 5.5C5 6.7 5.4 7.8 6 8.7L0.3 14.4C-0.1 14.8 -0.1 15.3 0.3 15.7C0.4 15.9 0.7 16 0.9 16C1.1 16 1.4 15.9 1.5 15.7L7.3 10C8.2 10.6 9.3 11 10.5 11C13.5 11 16 8.5 16 5.5C16 2.5 13.5 0 10.5 0ZM10.5 9.2C8.5 9.2 6.8 7.5 6.8 5.5C6.8 3.5 8.5 1.8 10.5 1.8C12.5 1.8 14.2 3.5 14.2 5.5C14.2 7.6 12.5 9.2 10.5 9.2Z" fill="white"/>
</g>
<defs>
<clipPath id="clip0_49_4">
<rect width="16" height="16" fill="white"/>
</clipPath>
</defs>
</svg>
